<svg width="133" height="32" viewBox="0 0 133 32" fill="none" xmlns="http://www.w3.org/2000/svg">
<path d="M61.0068 1C61.0068 0.447715 61.4546 0 62.0068 0H114.007C124.5 0 133.007 8.50659 133.007 19V31C133.007 31.5523 132.559 32 132.007 32H62.0068C61.4546 32 61.0068 31.5523 61.0068 31V1Z" fill="#1B1B1B"/>
<path d="M5.65695 24.0653V9.7782H0V5.64731H16.4972V9.7782H10.8666V24.0653H5.65695Z" fill="#1B1B1B"/>
<path d="M24.2348 24.3021C22.5509 24.3021 21.0775 23.9863 19.8145 23.3549C18.5691 22.7059 17.5956 21.8288 16.894 20.7237C16.2099 19.6011 15.8678 18.3294 15.8678 16.9086C15.8678 15.4878 16.2011 14.2248 16.8677 13.1197C17.5517 11.9971 18.4902 11.1288 19.683 10.5149C20.8758 9.88344 22.2176 9.56771 23.7086 9.56771C25.1119 9.56771 26.3924 9.85713 27.5501 10.436C28.7078 10.9973 29.6287 11.8305 30.3128 12.9356C30.9969 14.0406 31.3389 15.3825 31.3389 16.9612C31.3389 17.1366 31.3301 17.3383 31.3126 17.5664C31.2951 17.7944 31.2775 18.0049 31.26 18.1978H19.9724V15.5667H28.6025L26.7081 16.3034C26.7256 15.6544 26.6029 15.0931 26.3398 14.6195C26.0942 14.1459 25.7434 13.7775 25.2873 13.5144C24.8488 13.2513 24.3313 13.1197 23.7349 13.1197C23.1385 13.1197 22.6123 13.2513 22.1562 13.5144C21.7177 13.7775 21.3757 14.1547 21.1301 14.6458C20.8845 15.1194 20.7617 15.6807 20.7617 16.3297V17.0928C20.7617 17.7944 20.9021 18.3996 21.1827 18.9082C21.4809 19.4169 21.9019 19.8116 22.4457 20.0923C22.9894 20.3554 23.6384 20.4869 24.3927 20.4869C25.0943 20.4869 25.6907 20.3905 26.1819 20.1975C26.6906 19.987 27.1905 19.6713 27.6816 19.2503L30.3128 21.9867C29.6287 22.7409 28.7867 23.3198 27.7869 23.7232C26.787 24.1091 25.603 24.3021 24.2348 24.3021Z" fill="#1B1B1B"/>
<path d="M38.8272 24.3021C37.6169 24.3021 36.4328 24.1618 35.2751 23.8811C34.135 23.6004 33.2141 23.2496 32.5124 22.8286L34.0122 19.4082C34.6787 19.8116 35.4593 20.1361 36.3539 20.3817C37.2485 20.6097 38.1255 20.7237 38.985 20.7237C39.827 20.7237 40.4059 20.636 40.7216 20.4606C41.0549 20.2852 41.2215 20.0484 41.2215 19.7502C41.2215 19.4696 41.0636 19.2678 40.7479 19.145C40.4497 19.0047 40.0463 18.8995 39.5376 18.8293C39.0464 18.7591 38.5027 18.6802 37.9063 18.5925C37.3099 18.5048 36.7047 18.3908 36.0908 18.2505C35.4944 18.0926 34.9419 17.8646 34.4332 17.5664C33.942 17.2506 33.5474 16.8296 33.2492 16.3034C32.951 15.7772 32.8019 15.1106 32.8019 14.3038C32.8019 13.3916 33.065 12.5847 33.5912 11.8831C34.135 11.1639 34.9243 10.6026 35.9592 10.1992C36.9941 9.7782 38.2571 9.56771 39.7481 9.56771C40.7479 9.56771 41.7565 9.67295 42.7739 9.88344C43.8088 10.0764 44.6771 10.3746 45.3787 10.778L43.879 14.1722C43.1773 13.7688 42.4757 13.4969 41.774 13.3565C41.0724 13.1987 40.4059 13.1197 39.7744 13.1197C38.9324 13.1197 38.336 13.2162 37.9852 13.4092C37.6519 13.6021 37.4853 13.8389 37.4853 14.1196C37.4853 14.4002 37.6344 14.6195 37.9326 14.7774C38.2308 14.9177 38.6255 15.0317 39.1166 15.1194C39.6253 15.1896 40.1778 15.2685 40.7742 15.3562C41.3706 15.4264 41.967 15.5404 42.5634 15.6983C43.1773 15.8561 43.7299 16.0929 44.221 16.4087C44.7297 16.7069 45.1331 17.1191 45.4313 17.6453C45.7295 18.154 45.8786 18.8118 45.8786 19.6187C45.8786 20.4957 45.6067 21.285 45.063 21.9867C44.5367 22.6883 43.7474 23.2496 42.6949 23.6706C41.66 24.0916 40.3708 24.3021 38.8272 24.3021Z" fill="#1B1B1B"/>
<path d="M54.4002 24.3021C52.576 24.3021 51.1552 23.8548 50.1378 22.9602C49.1204 22.0481 48.6117 20.6799 48.6117 18.8556V6.62083H53.6109V18.803C53.6109 19.3117 53.7512 19.7151 54.0319 20.0133C54.3125 20.294 54.6721 20.4343 55.1106 20.4343C55.707 20.4343 56.2157 20.2852 56.6367 19.987L57.8733 23.4864C57.4523 23.7671 56.9349 23.9688 56.321 24.0916C55.707 24.2319 55.0668 24.3021 54.4002 24.3021ZM46.5331 14.067V10.3307H56.8735V14.067H46.5331Z" fill="#1B1B1B"/>
<path d="M64.9105 24.0653V5.64734H74.33C76.7506 5.64734 78.5574 6.09464 79.7501 6.98923C80.9429 7.86627 81.5393 9.02397 81.5393 10.4623C81.5393 11.4095 81.285 12.2427 80.7763 12.9619C80.2851 13.6635 79.5835 14.2249 78.6714 14.6458C77.7768 15.0493 76.7068 15.251 75.4614 15.251L75.9876 13.9881C77.2856 13.9881 78.417 14.1898 79.3818 14.5932C80.3465 14.9791 81.092 15.5492 81.6183 16.3035C82.162 17.0402 82.4339 17.9435 82.4339 19.0135C82.4339 20.6098 81.7849 21.8552 80.4869 22.7497C79.2064 23.6268 77.3295 24.0653 74.8562 24.0653H64.9105ZM70.0676 20.3028H74.4352C75.3298 20.3028 76.0052 20.1537 76.4612 19.8555C76.9348 19.5398 77.1716 19.0662 77.1716 18.4347C77.1716 17.8032 76.9348 17.3384 76.4612 17.0402C76.0052 16.7244 75.3298 16.5666 74.4352 16.5666H69.6992V12.9619H73.6459C74.5229 12.9619 75.1807 12.8128 75.6193 12.5146C76.0578 12.2164 76.277 11.7691 76.277 11.1727C76.277 10.5763 76.0578 10.1378 75.6193 9.85717C75.1807 9.55897 74.5229 9.40987 73.6459 9.40987H70.0676V20.3028Z" fill="white"/>
<path d="M84.8955 24.0653V4.54227H89.8946V24.0653H84.8955Z" fill="white"/>
<path d="M100.3 24.3021C98.739 24.3021 97.3533 23.9864 96.143 23.3549C94.9326 22.7234 93.9767 21.8552 93.275 20.7501C92.5909 19.6275 92.2489 18.347 92.2489 16.9086C92.2489 15.4703 92.5909 14.1985 93.275 13.0935C93.9767 11.9884 94.9326 11.1289 96.143 10.515C97.3533 9.88348 98.739 9.56774 100.3 9.56774C101.861 9.56774 103.247 9.88348 104.457 10.515C105.685 11.1289 106.641 11.9884 107.325 13.0935C108.009 14.1985 108.351 15.4703 108.351 16.9086C108.351 18.347 108.009 19.6275 107.325 20.7501C106.641 21.8552 105.685 22.7234 104.457 23.3549C103.247 23.9864 101.861 24.3021 100.3 24.3021ZM100.3 20.3291C100.879 20.3291 101.388 20.1975 101.826 19.9344C102.282 19.6713 102.642 19.2854 102.905 18.7767C103.168 18.2505 103.3 17.6278 103.3 16.9086C103.3 16.1894 103.168 15.5843 102.905 15.0931C102.642 14.5844 102.282 14.1985 101.826 13.9354C101.388 13.6723 100.879 13.5408 100.3 13.5408C99.7388 13.5408 99.2302 13.6723 98.7741 13.9354C98.3356 14.1985 97.976 14.5844 97.6953 15.0931C97.4322 15.5843 97.3007 16.1894 97.3007 16.9086C97.3007 17.6278 97.4322 18.2505 97.6953 18.7767C97.976 19.2854 98.3356 19.6713 98.7741 19.9344C99.2302 20.1975 99.7388 20.3291 100.3 20.3291Z" fill="white"/>
<path d="M117.64 29.4065C116.272 29.4065 114.965 29.2487 113.719 28.9329C112.492 28.6172 111.439 28.1523 110.562 27.5384L112.377 24.039C112.974 24.5126 113.711 24.881 114.588 25.1441C115.482 25.4247 116.351 25.5651 117.192 25.5651C118.543 25.5651 119.517 25.2669 120.113 24.6705C120.709 24.0916 121.008 23.2409 121.008 22.1183V20.4343L121.271 16.435L121.244 12.4094V9.80454H126.007V21.4605C126.007 24.1618 125.279 26.1615 123.823 27.4595C122.367 28.7575 120.306 29.4065 117.64 29.4065ZM116.771 23.3286C115.509 23.3286 114.342 23.0479 113.272 22.4866C112.22 21.9078 111.369 21.1097 110.72 20.0923C110.088 19.0574 109.773 17.8383 109.773 16.435C109.773 15.0317 110.088 13.8214 110.72 12.804C111.369 11.7691 112.22 10.971 113.272 10.4097C114.342 9.8484 115.509 9.56774 116.771 9.56774C117.982 9.56774 119.017 9.81332 119.876 10.3045C120.736 10.7781 121.385 11.5236 121.823 12.5409C122.279 13.5583 122.507 14.8563 122.507 16.435C122.507 18.0137 122.279 19.3117 121.823 20.3291C121.385 21.3465 120.736 22.1007 119.876 22.5919C119.017 23.083 117.982 23.3286 116.771 23.3286ZM117.956 19.3556C118.552 19.3556 119.078 19.2328 119.534 18.9872C120.008 18.7416 120.376 18.3996 120.639 17.9611C120.92 17.5226 121.06 17.0139 121.06 16.435C121.06 15.8562 120.92 15.3475 120.639 14.909C120.376 14.4704 120.008 14.1372 119.534 13.9091C119.078 13.6635 118.552 13.5408 117.956 13.5408C117.359 13.5408 116.824 13.6635 116.351 13.9091C115.877 14.1372 115.5 14.4704 115.219 14.909C114.956 15.3475 114.824 15.8562 114.824 16.435C114.824 17.0139 114.956 17.5226 115.219 17.9611C115.5 18.3996 115.877 18.7416 116.351 18.9872C116.824 19.2328 117.359 19.3556 117.956 19.3556Z" fill="white"/>
</svg>
