<svg width="80" height="55" viewBox="0 0 80 55" fill="none" xmlns="http://www.w3.org/2000/svg">
<path d="M17.58 20C21.0412 20 24.4246 21.0264 27.3025 22.9493C30.1803 24.8722 32.4234 27.6053 33.7479 30.803C35.0724 34.0007 35.419 37.5194 34.7437 40.9141C34.0685 44.3088 32.4018 47.4269 29.9544 49.8744C27.507 52.3218 24.3887 53.9885 20.9941 54.6637C17.5994 55.339 14.0807 54.9924 10.883 53.6679C7.68533 52.3434 4.95221 50.1003 3.02928 47.2225C1.10636 44.3446 0.08 40.9612 0.08 37.5L0 35C0 25.7174 3.68749 16.815 10.2513 10.2513C16.815 3.68749 25.7174 0 35 0V10C31.7155 9.99117 28.4619 10.6335 25.4272 11.89C22.3925 13.1464 19.637 14.992 17.32 17.32C16.4195 18.2188 15.5887 19.185 14.835 20.21C15.73 20.07 16.645 19.995 17.575 19.995L17.58 20ZM62.58 20C66.0412 20 69.4246 21.0264 72.3025 22.9493C75.1803 24.8722 77.4234 27.6053 78.7479 30.803C80.0724 34.0007 80.419 37.5194 79.7437 40.9141C79.0685 44.3088 77.4018 47.4269 74.9544 49.8744C72.507 52.3218 69.3887 53.9885 65.9941 54.6637C62.5994 55.339 59.0807 54.9924 55.883 53.6679C52.6853 52.3434 49.9522 50.1003 48.0293 47.2225C46.1064 44.3446 45.08 40.9612 45.08 37.5L45 35C45 25.7174 48.6875 16.815 55.2513 10.2513C61.815 3.68749 70.7174 0 80 0V10C76.7155 9.99117 73.4619 10.6335 70.4272 11.89C67.3925 13.1464 64.637 14.992 62.32 17.32C61.4195 18.2188 60.5887 19.185 59.835 20.21C60.73 20.07 61.645 20 62.58 20Z" fill="#8D959C"/>
</svg>
