<svg width="30" height="30" viewBox="0 0 30 30" fill="none" xmlns="http://www.w3.org/2000/svg">
<path d="M0 15C0 23.2843 6.71573 30 15 30C23.2843 30 30 23.2843 30 15C30 6.71573 23.2843 0 15 0C6.71573 0 0 6.71573 0 15Z" fill="#1B1B1B"/>
<path d="M8.03117 14.3515C12.0577 12.5972 14.7427 11.4407 16.0861 10.8819C19.9219 9.28648 20.7189 9.00934 21.2384 9.00009C21.3527 8.99817 21.6082 9.02649 21.7737 9.16077C21.9134 9.27416 21.9518 9.42732 21.9702 9.53482C21.9886 9.64232 22.0115 9.88721 21.9933 10.0786C21.7855 12.2626 20.8861 17.5626 20.4285 20.0088C20.2349 21.0439 19.8536 21.3909 19.4845 21.4249C18.6824 21.4987 18.0734 20.8948 17.2965 20.3855C16.0809 19.5887 15.3941 19.0926 14.2141 18.315C12.8504 17.4164 13.7344 16.9224 14.5116 16.1152C14.715 15.904 18.249 12.6895 18.3174 12.3979C18.326 12.3614 18.3339 12.2255 18.2532 12.1537C18.1724 12.0819 18.0532 12.1065 17.9672 12.126C17.8453 12.1537 15.9033 13.4373 12.1411 15.9768C11.5899 16.3553 11.0906 16.5397 10.6433 16.5301C10.1501 16.5194 9.20146 16.2512 8.49623 16.022C7.63124 15.7408 6.94377 15.5921 7.00363 15.1146C7.03481 14.8659 7.37733 14.6115 8.03117 14.3515Z" fill="#FEFEFE"/>
</svg>
