<svg width="30" height="30" viewBox="0 0 30 30" fill="none" xmlns="http://www.w3.org/2000/svg">
<path d="M30 15C30 6.71573 23.2843 0 15 0C6.71573 0 0 6.71573 0 15C0 23.2843 6.71573 30 15 30C23.2843 30 30 23.2843 30 15Z" fill="#1B1B1B"/>
<path fill-rule="evenodd" clip-rule="evenodd" d="M9.35055 10H7.60015C7.10003 10 7 10.2478 7 10.5209C7 11.0089 7.59343 13.4288 9.7631 16.6294C11.2095 18.8152 13.2474 20 15.1019 20C16.2145 20 16.3522 19.7368 16.3522 19.2836V17.6316C16.3522 17.1053 16.4576 17.0002 16.8099 17.0002C17.0695 17.0002 17.5146 17.1368 18.5531 18.1907C19.7399 19.4397 19.9356 20 20.6031 20H22.3535C22.8537 20 23.1037 19.7368 22.9595 19.2175C22.8016 18.6999 22.235 17.9489 21.4831 17.0588C21.0751 16.5514 20.4631 16.0049 20.2777 15.7317C20.0181 15.3804 20.0922 15.2243 20.2777 14.9121C20.2777 14.9121 22.4103 11.7505 22.6328 10.6772C22.7441 10.2868 22.6328 10 22.1035 10H20.3531C19.908 10 19.7028 10.2478 19.5915 10.5209C19.5915 10.5209 18.7014 12.8043 17.4404 14.2875C17.0324 14.7168 16.847 14.8535 16.6244 14.8535C16.5132 14.8535 16.3521 14.7168 16.3521 14.3266V10.6772C16.3521 10.2087 16.223 10 15.852 10H13.1014C12.8233 10 12.656 10.2174 12.656 10.4234C12.656 10.8674 13.2865 10.9698 13.3515 12.2188V14.9316C13.3515 15.5263 13.2494 15.6342 13.0269 15.6342C12.4335 15.6342 10.99 13.3406 10.1339 10.7162C9.9662 10.2061 9.7979 10 9.35055 10Z" fill="#FEFEFE"/>
</svg>
